#!OML:ASF E:/inclinewalkrobotboard/Project1/Captureday1/Session1/subject1.ASF
:FULLY-SPECIFIED
:DEGREES
13
root 0 0 0 1.536245602778692 -3.864422921602574 1.8557536328516337
lowerback 12.24229208319959 0.9584989893516417 0.022364844161626762
upperback -4.447798123621809 1.21314036091125 -0.6314112124327355
thorax -11.73881771220303 0.5611124802313832 -0.9356255760558649
lowerneck -6.0635711734019875 1.8666646902604895 4.775035803652155
upperneck 18.108658038782174 3.499931587266307 -8.586879047792445
head 6.647182164112534 1.3082091104927946 -3.280520497093245
rclavicle 2.165458611259185E-15 -7.124780179236298E-16
rhumerus 21.086599005417554 15.626098905415665 -47.80749503072761
rradius 73.2746581781676
rwrist 26.694320357997643
rhand -34.61425436991606 -57.18061341835921
rfingers 7.1250200000000286
rthumb -7.716606631522078 -87.14071946575422
lclavicle -7.351691710552911E-16 -7.547254035455821E-16
lhumerus 23.17442661346017 -14.459083935978796 44.74555974737457
lradius 71.83221863807412
lwrist -22.252292903722328
lhand -45.75506690515332 -71.95692810689128
lfingers 7.1250200000000286
lthumb -18.50915817314179 -42.740102535145
rfemur -25.087681414099535 -1.9964286385666794 17.70359067726408
rtibia 50.92945733273723
rfoot -34.090880620579604 -18.309048270583155
rtoes -21.720287260598617
lfemur -28.09988586414803 2.1974089242860475 -17.23275779913499
ltibia 51.031204088127495
lfoot -35.62422785614569 -0.26163531241842275
ltoes -21.938106819483956
14
root 0 0 0 1.5384384727666842 -3.8651258120600427 1.8553736777805976
lowerback 12.241137766220655 0.9587798679073087 0.02198671523875373
upperback -4.447333110807658 1.2134810852023548 -0.6312559688099152
thorax -11.737517138177695 0.5612775602919482 -0.9353364423515287
lowerneck -6.065052420903481 1.8662738120889795 4.774146576133258
upperneck 18.10704330031737 3.499321077201971 -8.585374816801435
head 6.646916302781886 1.3079824834809086 -3.279932480556866
rclavicle 2.17620572566034E-15 -6.977781785944077E-16
rhumerus 21.098125760145955 15.642308279581995 -47.81900571371142
rradius 73.28420518746807
rwrist 26.68198275710038
rhand -34.61443405731958 -57.17720147084323
rfingers 7.1250200000000286
rthumb -7.7168403946070665 -87.13810643265064
lclavicle -7.29617116549263E-16 -7.463388158928745E-16
lhumerus 23.179760464773423 -14.469062149113464 44.748376140155855
lradius 71.83883415104037
lwrist -22.246300949812422
lhand -45.755540926832644 -71.94964861133995
lfingers 7.1250200000000286
lthumb -18.509694813278124 -42.73265479808384
rfemur -25.066787676109676 -1.9614629056486397 17.750461501482672
rtibia 50.713316812898526
rfoot -34.23380290339715 -18.326167818603384
rtoes -21.78187459110709
lfemur -28.099824102545412 2.165348546731761 -17.2155105289892
ltibia 50.848929408999446
lfoot -35.72671524295404 -0.186387298626713
ltoes -22.00800702212456
15
root 0 0 0 1.5403567601738741 -3.8664925454786134 1.8541021708149272
lowerback 12.2398844851316 0.9595246362639536 0.022635871697744614
upperback -4.44686355828074 1.2145203328823169 -0.6310417188612377
thorax -11.736114818848186 0.5617668478345512 -0.9356185212208479
lowerneck -6.066735493313979 1.8659677132619639 4.773467679482878
upperneck 18.10679181039441 3.498819835517012 -8.584346946944594
head 6.647103442827039 1.3077641973740093 -3.279528921081326
rclavicle 2.179763393144006E-15 -6.912259136492087E-16
rhumerus 21.103100667181813 15.649027009922284 -47.82357335194581
rradius 73.28843166040286
rwrist 26.677120647734093
rhand -34.61471125995601 -57.17609668647687
rfingers 7.1250200000000286
rthumb -7.717123428726943 -87.13749734000044
lclavicle -7.280834230346021E-16 -7.419192054174997E-16
lhumerus 23.18078728050643 -14.47173052277772 44.749468557776524
lradius 71.84031589480828
lwrist -22.24421149976432
lhand -45.755287824150344 -71.94603599509342
lfingers 7.1250200000000286
lthumb -18.509461054641303 -42.72899380788836
rfemur -25.028904454105383 -1.9343059697924705 17.790186466064927
rtibia 50.5477233542859
rfoot -34.34058853566154 -18.328697540543498
rtoes -21.847109962825662
lfemur -28.095690844997208 2.1375410947487374 -17.187448340973766
ltibia 50.72783972185357
lfoot -35.75035289852653 -0.1582531057366654
ltoes -22.078682598451977
16
root 0 0 0 1.541595750948344 -3.8679191781210855 1.85264668620674
lowerback 12.238865022151316 0.9603892172821064 0.02374281353016905
upperback -4.4465198248478055 1.215750884402343 -0.6308757933659589
thorax -11.735003879389946 0.5623446798207711 -0.9362080232270635
lowerneck -6.068128271047333 1.8657879730092397 4.773110003258783
upperneck 18.10754781302945 3.498507185947144 -8.583894221381557
head 6.647557430086097 1.3076035291596573 -3.279352172568532
rclavicle 2.1777402666655296E-15 -6.907146021238706E-16
rhumerus 21.102778817203216 15.648236549870868 -47.82280972257777
rradius 73.28831058172054
rwrist 26.67790403350549
rhand -34.614989335404545 -57.17639806375693
rfingers 7.1250200000000286
rthumb -7.7173898333354 -87.13808307956742
lclavicle -7.299130585828951E-16 -7.40445282424742E-16
lhumerus 23.17847826636394 -14.468687931273733 44.74909830042642
lradius 71.83794734315731
lwrist -22.245326752958036
lhand -45.754629162494396 -71.94582465994011
lfingers 7.1250200000000286
lthumb -18.508793736322517 -42.72886710110751
rfemur -24.98775626211259 -1.9198976314211196 17.81445838345376
rtibia 50.46152867452964
rfoot -34.394289843715185 -18.319692691740208
rtoes -21.89966395814984
lfemur -28.089222292110584 2.1194764951386804 -17.15892319548677
ltibia 50.67800702753426
lfoot -35.71380880081632 -0.16942492361294548
ltoes -22.13242222768846
17
root 0 0 0 1.5422420413055624 -3.8711210271776637 1.8509394959617471
lowerback 12.237130558413835 0.9624582033685729 0.02554720581810993
upperback -4.446260940488726 1.218534931403786 -0.6311870685654796
thorax -11.733527061761027 0.5636870390087483 -0.9377970213469997
lowerneck -6.069786040030916 1.8654653719794394 4.772813154716033
upperneck 18.110855155652214 3.4978590308709254 -8.583530482418324
head 6.648851341467077 1.3072673305770683 -3.279249305169394
rclavicle 2.1718921960969595E-15 -6.9763092695638E-16
rhumerus 21.0948989871896 15.638184057817936 -47.816803801627046
rradius 73.28262948805545
rwrist 26.684734480092587
rhand -34.6148203708237 -57.17527114834687
rfingers 7.1250200000000286
rthumb -7.716776567958982 -87.1375650709821
lclavicle -7.339059572147184E-16 -7.256714277239071E-16
lhumerus 23.167479973280408 -14.454106792407778 44.74668847977425
lradius 71.82731570167454
lwrist -22.25188921196728
lhand -45.7517954067677 -71.94818476481942
lfingers 7.1250200000000286
lthumb -18.50584107403742 -42.73150827031196
rfemur -24.943842454729623 -1.919663120795449 17.818381705860947
rtibia 50.47192737650037
rfoot -34.37900268231745 -18.301145258394584
rtoes -21.925506246797767
lfemur -28.07942558553089 2.1155581065524673 -17.128642407086918
ltibia 50.717896677317924
lfoot -35.589447320644766 -0.23020043028109294
ltoes -22.15668345987314
18
root 0 0 0 1.5416378054105482 -3.870176572135775 1.85043524302103
lowerback 12.238030248651166 0.9618975748892131 0.02616756935817005
upperback -4.446368113853315 1.2179166794558307 -0.6308415532152126
thorax -11.734208044932366 0.5633646679239757 -0.9377254598007103
lowerneck -6.069297841834654 1.8658405759331431 4.773364935642368
upperneck 18.111057980153532 3.4985192593669803 -8.584621605093732
head 6.648835985841734 1.3075175707159223 -3.279642426386089
rclavicle 2.164451310074595E-15 -7.037282124504962E-16
rhumerus 21.090393976981943 15.63034768525016 -47.80987254118754
rradius 73.27831345722741
rwrist 26.691669681509033
rhand -34.6152778799244 -57.18010964334496
rfingers 7.1250200000000286
rthumb -7.717603869227188 -87.14150803615775
lclavicle -7.377960333715635E-16 -7.447705692739562E-16
lhumerus 23.167854584721923 -14.451582636903938 44.745299840300355
lradius 71.8258553597801
lwrist -22.25413482544507
lhand -45.752749215340785 -71.95318936733597
lfingers 7.1250200000000286
lthumb -18.506839787053305 -42.7366245695403
rfemur -24.931567509136485 -1.93223999243442 17.80790224423953
rtibia 50.54234388115144
rfoot -34.33783590005077 -18.283861298919447
rtoes -21.931867884401893
lfemur -28.079092171712436 2.1193755812053308 -17.123949032750676
ltibia 50.77650790603449
lfoot -35.539267792414044 -0.2682871471904047
ltoes -22.157443756873697
19
root 0 0 0 1.540774435395523 -3.8695285535639137 1.850612414752277
lowerback 12.23850865021902 0.9616416816374427 0.026241698213736453
upperback -4.446547955408926 1.2175902637392926 -0.6308558270251584
thorax -11.734738561577892 0.563205886830454 -0.9377337004030664
lowerneck -6.068664547708153 1.8660114205564773 4.773764623435674
upperneck 18.111441135123492 3.498799340253025 -8.585257116823795
head 6.648848697906253 1.3076267850974168 -3.2798901873850603
rclavicle 2.156889608181118E-15 -7.102883721777459E-16
rhumerus 21.085964009984004 15.623892593542719 -47.805040810830334
rradius 73.27470348828797
rwrist 26.69671255213789
rhand -34.61535947422955 -57.181584365014835
rfingers 7.1250200000000286
rthumb -7.717674630778795 -87.14289355128741
lclavicle -7.429622985972371E-16 -7.490010325255271E-16
lhumerus 23.165770688679324 -14.447779045259285 44.74415726691176
lradius 71.82349394836535
lwrist -22.256433289168385
lhand -45.75268898162687 -71.95628268893843
lfingers 7.1250200000000286
lthumb -18.506744534740562 -42.739781564710015
rfemur -24.93354066437961 -1.9444565935616067 17.79207402606244
rtibia 50.61740448280706
rfoot -34.287334273836024 -18.274640429512203
rtoes -21.91756485142118
lfemur -28.075679981370246 2.129943175605383 -17.12733612775712
ltibia 50.84364687069511
lfoot -35.49130728208186 -0.30187699466386153
ltoes -22.137845690810163
20
root 0 0 0 1.5399416607475116 -3.8687960063089846 1.8509535963849695
lowerback 12.23906293113953 0.9612780272333838 0.026115272083862273
upperback -4.446734265931519 1.2171091623416928 -0.6308638275259136
thorax -11.735328265406217 0.5629742680086665 -0.9376095374422173
lowerneck -6.067938794997358 1.866173682503412 4.77410500886946
upperneck 18.111510034305347 3.4990673028959938 -8.585786746114266
head 6.6487504664013715 1.3077385094365583 -3.28009436545623
rclavicle 2.1524505455082564E-15 -7.154018143517506E-16
rhumerus 21.08276524912546 15.619280977033261 -47.80160021768178
rradius 73.27205807109847
rwrist 26.70039314996646
rhand -34.615340894539685 -57.18283223318028
rfingers 7.1250200000000286
rthumb -7.717638218177358 -87.1439065851904
lclavicle -7.455571182640236E-16 -7.526676517243597E-16
lhumerus 23.165169732179095 -14.446186295995567 44.74352314975875
lradius 71.82258994839627
lwrist -22.257602504539854
lhand -45.752799023322375 -71.95832114280105
lfingers 7.1250200000000286
lthumb -18.506830278081583 -42.741807863014344
rfemur -24.94508988671954 -1.9548497879387003 17.77720953501325
rtibia 50.68111838987504
rfoot -34.24496052253819 -18.27175449932919
rtoes -21.89541088833471
lfemur -28.075188740488223 2.140964874677036 -17.13583631394084
ltibia 50.899492732075586
lfoot -35.46866313872626 -0.3213187103446917
ltoes -22.113560520506887
